<svg width="72" height="74" viewBox="0 0 72 74" fill="none" xmlns="http://www.w3.org/2000/svg">
<path d="M0.125 0H9.9375L14.625 0.0625L16.375 0.125L19.8125 0.4375H20.875L22.9375 0.3125L23.625 0.25L25.5625 0.1875H44.375L48.8125 0.0625H50.875L51 0.125L51.0625 0.6875V31L51 31.0625H48.4375L42.625 30.9375L37.5625 30.875L36.875 30.8125L36.6875 30.6875L36.625 30.5L36.5625 23.5625L36.5 21L36.4375 14.3125L36.375 12.9375L31.8125 12.875H27L27.0625 14.0625L27 29.8125V35.3125L27.0625 44.5V62.0625H34.875L36.375 62V60.5625L36.25 54.625L36.125 45.3125L36.1875 44.875L36.3125 44.8125H41.4375L50.5625 44.875L50.9375 44.9375L51 45.0625V68.0625H54.5625L55.4375 68L55.875 67.875V63.875L55.8125 54.6875V1.125L56.1875 1H66.125L72 1.0625V6H61.0625L61.125 6.625L61.0625 18.875V72.6875L60.625 72.8125H50.9375L50.75 73.4375L50.625 73.5625L50.3125 73.5L50.0625 73.375L50 73.25H49.875L49.8125 73.375L49.125 73.25L48.9375 73.1875L47.8125 73.125L41.4375 73.0625H24.9375L18.625 73.125L16.875 73.1875L14.875 73.4375H14.1875L13.9375 73.125L13.875 72.75V5.75H9.3125L5.0625 5.8125V15.5L5.1875 30.75L5.25 34.625L5.125 34.75L4.6875 34.8125H0.4375L0.125 34.75L0.0625 34.625L0 32.4375V3.5625L0.0625 0.125L0.125 0ZM28.875 5.375L21.625 5.5L19.625 5.5625L19.125 5.6875L19 5.875V22.8125L18.9375 46.375V53.3125L19 67.5625L19.125 68.125L19.375 68.3125L20.5 68.5L22.875 68.75L24.5625 68.8125L27.4375 68.875H38L39.9375 68.8125L41.3125 68.6875L42.3125 68.5625L45.1875 68.375L45.8125 68.25L46 67.8125V64.9375L45.9375 50.4375L45.8125 50.125L45.5 50L44.4375 49.875L42.4375 49.8125L41.875 49.875L41.8125 50.25L41.75 66.625L41.625 66.6875L39.9375 66.75H23.1875L22.125 66.6875L21.875 66.4375L21.75 65.75L21.625 63.625L21.5625 60.375L21.5 54.375V49.5L21.5625 10.375L21.625 8L21.875 7.9375H26.25L41.8125 8V24.5L41.875 25.875L42.375 25.9375H45.75L45.875 25.875V23.1875L45.75 12.25L45.5625 8.25L45.4375 6.6875L45.25 6.0625L44.6875 5.9375L42.0625 5.6875L38.125 5.5L34.25 5.375H28.875Z" fill="black"/>
</svg>
